<svg width="32" height="32" viewBox="0 0 32 32" fill="none" xmlns="http://www.w3.org/2000/svg">
  <!-- Coração -->
  <path
    d="M16 26.5c-0.8 0-1.6-0.3-2.2-0.9C10.1 22.5 5.5 18.5 5.5 13c0-3.5 2.9-6.3 6.3-6.3 1.9 0 3.6 0.8 4.8 2.2 1.2-1.4 2.9-2.2 4.8-2.2 3.5 0 6.3 2.9 6.3 6.3 0 5.5-4.6 9.5-8.3 12.6-0.6 0.6-1.4 0.9-2.2 0.9z"
    fill="url(#heartGradient)"
    stroke="url(#heartBorder)"
    strokeWidth="0.3"
  />

  <!-- Círculo branco de fundo -->
  <circle cx="16" cy="15" r="6" fill="white" fillOpacity="0.95"/>

  <!-- Símbolo do dólar -->
  <text
    x="16"
    y="19"
    textAnchor="middle"
    fontSize="9"
    fontWeight="700"
    fill="url(#dollarGradient)"
    fontFamily="system-ui, -apple-system, sans-serif"
  >
    $
  </text>

  <!-- Gradientes -->
  <defs>
    <linearGradient id="heartGradient" x1="0%" y1="0%" x2="100%" y2="0%">
      <stop offset="0%" stopColor="#EC4899" />
      <stop offset="25%" stopColor="#F472B6" />
      <stop offset="75%" stopColor="#0EA5E9" />
      <stop offset="100%" stopColor="#0284C7" />
    </linearGradient>

    <linearGradient id="heartBorder" x1="0%" y1="0%" x2="100%" y2="0%">
      <stop offset="0%" stopColor="#BE185D" />
      <stop offset="100%" stopColor="#0369A1" />
    </linearGradient>

    <linearGradient id="dollarGradient" x1="0%" y1="0%" x2="100%" y2="0%">
      <stop offset="0%" stopColor="#BE185D" />
      <stop offset="50%" stopColor="#7C3AED" />
      <stop offset="100%" stopColor="#0369A1" />
    </linearGradient>
  </defs>
</svg>
